<svg xmlns="http://www.w3.org/2000/svg" version="1.1" viewBox="-5.0 -10.0 110.0 135.0">
 <path d="m34.84 48.691c2.3945 4.9883-1.0703 11.629-7.7383 14.828-6.668 3.1992-14.016 1.75-16.41-3.2383-2.3945-4.9883 1.0703-11.629 7.7383-14.828 2.9062-1.3945 5.9453-1.9062 8.6445-1.625 0.23438 0.023437 0.44922-0.074219 0.58203-0.26562 0.13672-0.19141 0.15625-0.42578 0.054688-0.64062l-12.562-26.18c-0.46875-0.97266-0.050782-2.1562 0.92187-2.6211 0.97656-0.46875 2.1562-0.054688 2.6211 0.92188l0.77734 1.6211c0.11719 0.24609 0.37109 0.38672 0.64453 0.35547 10.539-1.207 17.543 1.8164 21.008 9.0703 0.125 0.25781 0.0625 0.55859-0.15234 0.74609-0.21484 0.19141-0.51953 0.21484-0.76172 0.058593-5.1914-3.3008-10.469-3.8125-15.828-1.5352-0.16406 0.070313-0.28125 0.19141-0.34766 0.35938-0.0625 0.16797-0.054688 0.33594 0.023438 0.5zm14.125 18.73c-2.7305-0.83203-6.0977-0.67969-9.3672 0.64453-6.2188 2.5195-9.7344 8.332-7.8516 12.988 1.8828 4.6523 8.4531 6.3828 14.676 3.8672 2.7148-1.0977 5.5781-3.3281 7.0117-6.2656 0.91797-1.8828 0.83984-2.832 0.83984-4.8594v-29.523c0-0.52734 0.375-0.96875 0.89453-1.0508l29.625-4.7773c0.32031-0.050781 0.61328 0.03125 0.85938 0.24219s0.375 0.48828 0.375 0.8125v20.25c0 0.35547-0.15625 0.66016-0.44531 0.86719-0.28906 0.20703-0.62891 0.25781-0.96484 0.14062-2.7891-0.95312-6.3047-0.85156-9.7148 0.53125-6.2188 2.5195-9.7344 8.332-7.8516 12.988 1.8828 4.6523 8.4531 6.3828 14.676 3.8672 2.3789-0.96484 5.0664-2.8594 6.707-5.2461 2.2227-3.2383 1.5273-7.5391 1.5273-11.375v-39.297c0-0.32422-0.12891-0.60156-0.375-0.8125-0.24609-0.21094-0.54297-0.29297-0.85938-0.24219l-34.453 5.5547-3.0352 0.48828c-0.51953 0.085937-0.89453 0.52344-0.89453 1.0508v38.141c0 0.34766-0.15234 0.64844-0.42969 0.85547-0.28125 0.20312-0.61328 0.26172-0.94922 0.16016z" fill-rule="evenodd"/>
<text x="0.0" y="117.5" font-size="5.0" font-weight="bold" font-family="Arbeit Regular, Helvetica, Arial-Unicode, Arial, Sans-serif" fill="#000000">Created by Edy Susanto</text><text x="0.0" y="122.5" font-size="5.0" font-weight="bold" font-family="Arbeit Regular, Helvetica, Arial-Unicode, Arial, Sans-serif" fill="#000000">from Noun Project</text></svg>